<svg xmlns="http://www.w3.org/2000/svg" viewBox="0 0 120 120" width="120" height="120">
  <defs>
    <linearGradient id="drBg" x1="0%" y1="0%" x2="100%" y2="100%">
      <stop offset="0%" stop-color="#F0FDFA"/>
      <stop offset="100%" stop-color="#CCFBF1"/>
    </linearGradient>
    <linearGradient id="drCoat" x1="0%" y1="0%" x2="100%" y2="100%">
      <stop offset="0%" stop-color="#FFFFFF"/>
      <stop offset="100%" stop-color="#E2E8F0"/>
    </linearGradient>
  </defs>
  <!-- Background Circle -->
  <circle cx="60" cy="60" r="58" fill="url(#drBg)" stroke="#99F6E4" stroke-width="2"/>
  
  <!-- Doctor Body / Shoulders -->
  <path d="M22 110 C22 84 40 76 60 76 C80 76 98 84 98 110 Z" fill="url(#drCoat)"/>
  
  <!-- Inner Scrub / Shirt -->
  <path d="M46 76 L60 94 L74 76 Z" fill="#00A896"/>
  
  <!-- Doctor Head / Face -->
  <circle cx="60" cy="46" r="22" fill="#F8D7C4"/>
  
  <!-- Hair -->
  <path d="M38 44 C38 28 50 22 60 22 C70 22 82 28 82 44 C82 34 72 30 60 30 C48 30 38 34 38 44 Z" fill="#334155"/>
  
  <!-- Stethoscope -->
  <path d="M44 80 C44 98 56 104 60 104 C64 104 76 98 76 80" fill="none" stroke="#0F766E" stroke-width="3.5" stroke-linecap="round"/>
  <circle cx="60" cy="106" r="4.5" fill="#0D9488" stroke="#FFFFFF" stroke-width="1.5"/>
</svg>
